HIERARCHY
ROOT Hips
{
	OFFSET 0.00000 0.00000 0.00000
	CHANNELS 6 Xposition Yposition Zposition Yrotation Zrotation Xrotation 
	JOINT Lumbar
	{
		OFFSET 0 0 0
		CHANNELS 3 Zrotation Xrotation Yrotation
		JOINT Neck
		{
			OFFSET 0.00 0.2701 0.00
			CHANNELS 3 Zrotation Xrotation Yrotation
			End Site
			{
				OFFSET 0.00 0.1379 0.00
			}
		}
		JOINT RightShoulder
		{
			OFFSET 0.0119 0.2289 0.1181
			CHANNELS 3 Zrotation Xrotation Yrotation
			JOINT RightElbow
			{
				OFFSET 0.00 -0.1475 0.00
				CHANNELS 2 Zrotation Yrotation
				JOINT RightWrist
				{
					OFFSET 0.00 -0.1605 0.00
					CHANNELS 2 Zrotation Xrotation
					End Site
					{
						OFFSET 0.0040 -0.1068 0.0006
					}
				}
			}
		}
		JOINT LeftShoulder
		{
			OFFSET 0.0119 0.2289 -0.1181
			CHANNELS 3 Zrotation Xrotation Yrotation
			JOINT LeftElbow
			{
				OFFSET 0.00 -0.1475 0.00
				CHANNELS 2 Zrotation Yrotation
				JOINT LeftWrist
				{
					OFFSET 0.00 -0.1605 0.00
					CHANNELS 2 Zrotation Xrotation
					End Site
					{
						OFFSET 0.0040 -0.1068 -0.0006
					}
				}
			}
		}
	}
	JOINT RightHip
	{
		OFFSET 0.0316 -0.0424 0.0458
		CHANNELS 3 Zrotation Xrotation Yrotation
		JOINT RightKnee
		{
			OFFSET 0.00 -0.2438 0.00
			CHANNELS 1 Zrotation
			JOINT RightAnkle
			{
				OFFSET 0.00 -0.2449 0.00
				CHANNELS 3 Zrotation Xrotation Yrotation
				End Site
				{
					OFFSET 0.1237 -0.0542 0.0051
				}
			}
		}
	}
	JOINT LeftHip
	{
		OFFSET 0.0316 -0.0424 -0.0458
		CHANNELS 3 Zrotation Xrotation Yrotation
		JOINT LeftKnee
		{
			OFFSET 0.00 -0.2438 0.00
			CHANNELS 1 Zrotation
			JOINT LeftAnkle
			{
				OFFSET 0.00 -0.2449 0.00
				CHANNELS 3 Zrotation Xrotation Yrotation
				End Site
				{
					OFFSET 0.1237 -0.0542 -0.0051
				}
			}
		}
	}
}
MOTION
Frames: 19
Frame Time: 0.02
0.00086 -0 -0.00056 -178.2856 -41.75061 -3.09562 50.00542 1.74001 -3.60925 8.50659 0.18259 -0.59005 -8.63299 -13.83115 -20.28311 27.8665 67.4225 -4.08079 -1.58057 -14.1724 10.28224 10.51667 54.22349 -166.38926 32.79746 -12.81396 44.0748 0.56927 -12.16034 -19.28225 -6.14846 -2.10338 -3.20553 46.85216 3.18762 8.34667 -24.93413 -6.23377 1.9899 3.18874
0.00059 -2e-05 -0.00064 -178.13852 -41.69796 -3.06519 49.90192 1.73229 -3.64991 8.60286 0.11808 -0.5919 -9.16843 -13.52162 -16.98794 28.4655 72.36164 -2.10106 -0.9485 -14.49105 10.50777 7.98286 53.63659 -159.85583 30.82293 -11.70747 43.99173 0.5678 -12.2335 -19.30693 -6.14514 -2.10818 -3.21127 46.78008 3.24432 8.54839 -24.95466 -6.23994 1.95003 3.17015
0.00033 -3e-05 -0.00072 -177.99168 -41.64545 -3.0348 49.7986 1.72458 -3.69054 8.69872 0.05373 -0.59387 -9.70294 -13.21334 -13.70213 29.06364 77.28052 -0.12857 -0.31927 -14.80927 10.73258 5.45648 53.0514 -153.34298 28.85498 -10.60436 43.90892 0.56629 -12.30649 -19.33153 -6.14184 -2.11298 -3.21698 46.70827 3.30083 8.74949 -24.97513 -6.2461 1.91026 3.15162
6e-05 -5e-05 -0.00079 -177.84502 -41.59296 -3.00447 49.6954 1.71688 -3.73109 8.79468 -0.01058 -0.59574 -10.23687 -12.90478 -10.41693 29.66098 82.20345 1.84485 0.31068 -15.12702 10.95738 2.93037 52.46628 -146.82978 26.88664 -9.50128 43.8261 0.56481 -12.37943 -19.35614 -6.13853 -2.11777 -3.2227 46.63642 3.35735 8.95059 -24.99559 -6.25225 1.8705 3.13309
-0.0002 -6e-05 -0.00087 -177.69817 -41.54033 -2.97412 49.59205 1.70917 -3.77162 8.89111 -0.07505 -0.59746 -10.77143 -12.59494 -7.12282 30.25873 87.14899 3.82601 0.9439 -15.44501 11.18301 0.39708 51.87952 -140.29574 24.91142 -8.39481 43.74301 0.56337 -12.45255 -19.38082 -6.13521 -2.12256 -3.22842 46.56429 3.41408 9.15234 -25.01611 -6.2584 1.83065 3.11451
-0.00046 -8e-05 -0.00094 -177.55138 -41.48808 -2.94364 49.48881 1.70144 -3.81245 8.98574 -0.13914 -0.59994 -11.30577 -12.28998 -3.85474 30.85759 92.01187 5.78025 1.56475 -15.7637 11.40614 -2.11454 51.2977 -133.82777 22.95883 -7.29885 43.66081 0.56173 -12.52527 -19.40526 -6.13196 -2.12737 -3.23413 46.49315 3.47013 9.35207 -25.03646 -6.26461 1.79106 3.09606
-0.00074 -9e-05 -0.00102 -177.40463 -41.43512 -2.91347 49.38548 1.69377 -3.85267 9.08388 -0.20392 -0.60088 -11.84006 -11.97539 -0.53767 31.45375 97.0341 7.78613 2.20952 -16.08058 11.63379 -4.66719 50.70652 -127.2346 20.96323 -6.18302 43.57687 0.5605 -12.59864 -19.43015 -6.12855 -2.13215 -3.23987 46.42007 3.52745 9.55558 -25.05713 -6.27068 1.75098 3.07738
-0.001 -0.0001 -0.00109 -177.25785 -41.38284 -2.88302 49.28221 1.68605 -3.89339 9.17879 -0.26803 -0.60324 -12.37423 -11.66991 2.73387 32.05205 101.91235 9.74509 2.83275 -16.3992 11.85775 -7.18166 50.12405 -120.75573 19.00661 -5.0854 43.49461 0.55888 -12.67155 -19.45463 -6.1253 -2.13693 -3.24557 46.34885 3.58365 9.75573 -25.07751 -6.27688 1.71134 3.05891
-0.00125 -0.00011 -0.00117 -177.11093 -41.33128 -2.85216 49.17902 1.67825 -3.935 9.26976 -0.3315 -0.60738 -12.90927 -11.3746 5.95264 32.65478 106.60395 11.6445 3.42773 -16.71993 12.07537 -9.65195 49.55165 -114.41855 17.09961 -4.01001 43.4141 0.55681 -12.74336 -19.47864 -6.12222 -2.14179 -3.25124 46.27962 3.63832 9.95136 -25.09754 -6.28323 1.67227 3.0407
-0.00157 -0.00014 -0.00125 -176.9645 -41.27521 -2.82344 49.07541 1.67083 -3.97235 9.38342 -0.39919 -0.6014 -13.44239 -11.01787 9.48382 33.23753 112.33748 13.88 4.17945 -17.0285 12.32399 -12.38398 48.91959 -107.27185 14.91299 -2.8066 43.32262 0.55742 -12.81991 -19.50542 -6.11808 -2.14645 -3.25717 46.19808 3.70131 10.17174 -25.1196 -6.28868 1.63004 3.02102
-0.00174 -0.00013 -0.00132 -176.81727 -41.22891 -2.79034 48.97267 1.66268 -4.01811 9.4492 -0.45764 -0.61668 -13.97747 -10.79257 12.34992 33.85873 115.89336 15.41057 4.60424 -17.36262 12.51067 -14.55877 48.41454 -101.82988 13.31267 -1.87343 43.25486 0.5523 -12.88746 -19.52631 -6.11622 -2.15139 -3.26247 46.14305 3.74704 10.34072 -25.13735 -6.29607 1.5944 3.0044
-0.00152 -2e-05 -0.00138 -176.66565 -41.20781 -2.74409 48.87233 1.65182 -4.09186 9.38284 -0.4931 -0.69173 -14.53509 -10.91611 13.42272 34.61753 113.2483 14.95417 4.09269 -17.76818 12.49745 -15.23067 48.25123 -101.13783 13.36684 -1.68791 43.24845 0.53201 -12.92156 -19.53121 -6.12041 -2.15832 -3.26671 46.15751 3.74238 10.36043 -25.14338 -6.30867 1.57769 2.99647
-0.00115 0.00014 -0.00144 -176.51358 -41.19701 -2.69362 48.77276 1.64028 -4.17316 9.26886 -0.51878 -0.7878 -15.09129 -11.17371 13.82165 35.40894 108.46083 13.80014 3.26061 -18.1988 12.42765 -15.33777 48.21615 -102.14476 14.00139 -1.77271 43.26691 0.50589 -12.94798 -19.53016 -6.12693 -2.16534 -3.2702 46.19955 3.7209 10.32991 -25.14508 -6.32326 1.56745 2.99155
-0.00083 0.00028 -0.0015 -176.3632 -41.18232 -2.64583 48.67292 1.62957 -4.24779 9.17679 -0.54744 -0.87338 -15.63723 -11.3778 14.50853 36.16461 104.79767 12.99904 2.60016 -18.61757 12.40318 -15.68676 48.12755 -102.32643 14.34034 -1.72968 43.27599 0.48201 -12.98395 -19.53168 -6.1325 -2.1715 -3.27357 46.23064 3.70913 10.32795 -25.14869 -6.33702 1.55369 2.98504
-0.00057 0.00042 -0.00154 -176.20677 -41.16354 -2.59491 48.57309 1.6169 -4.33604 9.0822 -0.5825 -0.96317 -16.23011 -11.55129 15.27208 37.00901 100.48376 12.04301 1.82743 -19.03985 12.29549 -16.09877 48.02149 -102.73356 14.81434 -1.70778 43.27557 0.4597 -12.99537 -19.53373 -6.13761 -2.18101 -3.27882 46.25361 3.68879 10.30232 -25.15247 -6.35044 1.54238 2.97948
-0.00015 0.00056 -0.00163 -176.06257 -41.1567 -2.54938 48.47299 1.60786 -4.39778 8.98318 -0.60162 -1.04891 -16.72373 -11.81976 15.71518 37.67591 97.0304 11.24686 1.21514 -19.45887 12.34806 -16.24349 47.97925 -103.07674 15.14529 -1.70648 43.30263 0.43291 -13.0548 -19.53329 -6.14426 -2.1837 -3.28007 46.30189 3.68209 10.31328 -25.15493 -6.36511 1.52754 2.97267
0.00061 0.00067 -0.00185 -175.95425 -41.17226 -2.52088 48.37566 1.61158 -4.38419 8.87058 -0.58153 -1.12071 -16.95316 -12.32148 15.44961 37.84822 96.36302 11.04044 1.10174 -19.87861 12.85444 -15.80901 48.10698 -102.79298 14.93009 -1.68955 43.38463 0.39373 -13.25964 -19.52718 -6.15418 -2.16645 -3.26966 46.39792 3.71896 10.4444 -25.15428 -6.38219 1.50094 2.96155
0.00152 0.00077 -0.00211 -175.85783 -41.20121 -2.49776 48.2773 1.61849 -4.34382 8.7579 -0.54525 -1.18728 -17.08076 -12.91322 14.88319 37.84025 96.64917 11.02116 1.16372 -20.29114 13.52449 -15.12179 48.29012 -102.38985 14.55162 -1.68451 43.49652 0.35057 -13.51078 -19.51882 -6.16567 -2.14258 -3.2554 46.52168 3.76975 10.61249 -25.15252 -6.40058 1.47065 2.94913
0.0024 0.00087 -0.00236 -175.75466 -41.22905 -2.4714 48.17702 1.62223 -4.31578 8.6534 -0.51487 -1.25466 -17.24897 -13.46142 14.44697 37.9123 96.58543 10.93403 1.1622 -20.69673 14.12141 -14.53636 48.43095 -102.06641 14.25465 -1.67888 43.60402 0.31008 -13.73387 -19.51161 -6.17669 -2.12242 -3.24339 46.6424 3.81307 10.75965 -25.15162 -6.41874 1.44229 2.93738
